<?xml version="1.0" standalone="no"?>
<!DOCTYPE svg PUBLIC "-//W3C//DTD SVG 20010904//EN"
 "http://www.w3.org/TR/2001/REC-SVG-20010904/DTD/svg10.dtd">
<svg version="1.0" xmlns="http://www.w3.org/2000/svg"
 width="1920.000000pt" height="1080.000000pt" viewBox="0 0 1920.000000 1080.000000"
 preserveAspectRatio="xMidYMid meet">

<g transform="translate(0.000000,1080.000000) scale(0.100000,-0.100000)"
fill="#000000" stroke="none">
<path d="M9071 10329 c-258 -50 -454 -225 -516 -459 -19 -73 -19 -240 0 -314
58 -223 247 -392 572 -512 54 -20 158 -65 232 -101 198 -95 261 -167 261 -294
0 -76 -18 -118 -74 -174 -64 -64 -134 -93 -249 -101 -158 -12 -312 28 -398
104 -50 44 -80 111 -88 195 l-6 72 -177 3 -178 2 0 -360 0 -360 174 0 c96 0
177 4 180 8 3 5 -1 45 -8 90 l-13 82 47 -48 c161 -164 537 -214 807 -108 188
74 337 248 378 443 33 153 9 342 -58 451 -89 147 -239 252 -547 382 -239 101
-316 144 -385 214 -41 41 -65 75 -73 102 -42 145 28 277 171 319 72 21 221 20
295 -4 124 -38 174 -104 182 -241 l5 -85 178 -3 177 -2 0 335 0 335 -180 0
-180 0 5 -22 c3 -13 9 -43 14 -67 l10 -44 -46 47 c-54 54 -145 102 -222 116
-64 12 -228 11 -290 -1z"/>
<path d="M4352 10118 l3 -183 123 -3 122 -3 0 -764 0 -765 -125 0 -125 0 2
-182 3 -183 445 0 445 0 3 183 2 182 -125 0 -125 0 0 765 0 764 123 3 122 3 3
183 2 182 -450 0 -450 0 2 -182z"/>
<path d="M13240 10115 l0 -185 125 0 125 0 0 -765 0 -765 -125 0 -125 0 0
-185 0 -185 860 0 860 0 0 315 0 315 -170 0 -170 0 0 -130 0 -130 -365 0 -365
0 0 765 0 765 170 0 170 0 0 185 0 185 -495 0 -495 0 0 -185z"/>
<path d="M5310 10236 c0 -21 24 -41 147 -122 171 -112 173 -113 173 -87 0 14
-45 50 -160 126 -148 99 -160 105 -160 83z"/>
<path d="M10022 10241 c2 -16 47 -52 158 -125 144 -96 171 -108 156 -71 -4 12
-176 132 -279 194 l-39 24 4 -22z"/>
<path d="M14290 10241 c0 -14 42 -48 155 -125 86 -58 158 -106 160 -106 3 0 5
9 5 20 0 14 -40 46 -147 118 -188 125 -173 117 -173 93z"/>
<path d="M10020 10138 c0 -20 25 -41 152 -124 83 -54 155 -100 160 -102 4 -2
8 7 8 20 0 23 -59 66 -297 216 -22 13 -23 13 -23 -10z"/>
<path d="M14290 10137 c0 -20 27 -42 160 -130 149 -99 160 -105 160 -82 0 21
-23 40 -147 123 -82 54 -154 102 -160 106 -9 5 -13 0 -13 -17z"/>
<path d="M5310 10127 c0 -21 24 -40 155 -126 86 -56 158 -101 160 -101 3 0 5
10 5 23 0 17 -31 42 -152 122 -83 55 -155 102 -160 103 -4 2 -8 -7 -8 -21z"/>
<path d="M5310 10015 c0 -21 24 -41 148 -123 81 -54 153 -102 160 -106 8 -5
12 1 12 18 0 26 -55 67 -262 199 l-58 37 0 -25z"/>
<path d="M10020 10019 c1 -20 29 -43 152 -124 83 -55 155 -101 159 -103 5 -2
9 8 9 22 0 21 -22 39 -147 122 -81 53 -153 99 -160 101 -8 3 -13 -3 -13 -18z"/>
<path d="M14290 10017 c0 -21 24 -40 155 -126 85 -56 157 -101 160 -101 3 0 5
10 5 23 0 17 -32 43 -151 122 -83 55 -155 102 -160 103 -5 2 -9 -7 -9 -21z"/>
<path d="M9260 9923 c1 -7 282 -194 287 -190 0 1 -1 14 -4 28 -6 35 -181 153
-240 164 -24 4 -43 3 -43 -2z"/>
<path d="M10020 9907 c0 -19 20 -37 103 -93 56 -37 128 -85 160 -106 l57 -39
0 25 c0 22 -23 41 -147 124 -82 54 -154 102 -160 106 -9 5 -13 0 -13 -17z"/>
<path d="M14290 9906 c0 -23 19 -39 145 -121 142 -93 175 -109 175 -82 0 12
-74 65 -292 210 l-28 19 0 -26z"/>
<path d="M5310 9897 c0 -20 25 -40 138 -116 126 -83 190 -111 180 -78 -2 6
-67 54 -143 105 -185 123 -175 118 -175 89z"/>
<path d="M9127 9903 c-4 -3 63 -53 149 -110 112 -75 161 -102 175 -98 10 4 19
10 19 15 0 4 -66 51 -147 104 -136 88 -178 107 -196 89z"/>
<path d="M5269 9785 c110 -72 152 -95 178 -95 18 0 33 2 33 4 0 2 -62 44 -138
95 -116 77 -144 91 -177 91 -39 0 -37 -2 104 -95z"/>
<path d="M13950 9875 c0 -3 68 -50 151 -104 135 -88 153 -97 174 -87 22 10 15
17 -118 103 -104 68 -151 93 -174 93 -18 0 -33 -2 -33 -5z"/>
<path d="M14130 9875 c0 -2 61 -45 136 -95 117 -79 140 -91 171 -88 36 3 34 5
-103 96 -104 68 -148 92 -172 92 -18 0 -32 -2 -32 -5z"/>
<path d="M9051 9857 c-6 -6 -11 -15 -11 -19 0 -4 72 -56 160 -115 147 -97 162
-105 177 -91 14 15 1 26 -150 126 -122 82 -167 108 -176 99z"/>
<path d="M5060 9828 c0 -19 29 -42 151 -123 83 -55 155 -101 160 -103 5 -2 9
7 9 21 0 21 -24 40 -152 123 -83 55 -155 101 -160 102 -4 2 -8 -7 -8 -20z"/>
<path d="M10020 9787 c0 -19 29 -42 152 -123 83 -54 158 -100 165 -102 8 -2
13 5 13 18 0 16 -37 45 -160 125 -87 58 -162 105 -165 105 -3 0 -5 -10 -5 -23z"/>
<path d="M13942 9779 c2 -17 44 -49 161 -125 152 -100 157 -102 157 -76 0 24
-18 38 -147 122 -81 52 -153 97 -161 98 -9 3 -13 -4 -10 -19z"/>
<path d="M9004 9765 c-4 -9 -3 -20 2 -24 15 -14 313 -211 319 -211 3 0 5 10 5
23 0 17 -32 43 -151 122 -83 55 -155 101 -160 103 -5 2 -12 -4 -15 -13z"/>
<path d="M5060 9716 c0 -22 19 -38 118 -104 64 -43 136 -91 160 -106 l42 -26
0 25 c0 21 -23 40 -147 123 -82 54 -154 101 -160 106 -9 5 -13 0 -13 -18z"/>
<path d="M10020 9676 c0 -23 21 -40 158 -131 88 -58 162 -105 165 -105 4 0 7
10 7 23 0 17 -29 41 -137 112 -75 50 -149 98 -165 108 l-28 19 0 -26z"/>
<path d="M13942 9669 c2 -18 36 -47 133 -112 72 -49 142 -95 158 -103 26 -14
27 -13 27 8 0 19 -30 43 -152 123 -83 55 -155 102 -160 104 -5 2 -8 -7 -6 -20z"/>
<path d="M9019 9643 c18 -34 53 -64 137 -118 131 -85 164 -99 164 -71 0 12
-286 206 -304 206 -4 0 -2 -8 3 -17z"/>
<path d="M5060 9597 c0 -21 25 -41 156 -126 85 -55 157 -101 160 -101 2 0 4
10 4 23 0 17 -29 41 -146 117 -81 52 -153 99 -160 103 -10 6 -14 1 -14 -16z"/>
<path d="M9812 9557 c15 -12 79 -55 142 -95 92 -59 121 -73 147 -70 31 3 25 8
-107 96 -110 72 -147 92 -174 92 l-35 -1 27 -22z"/>
<path d="M9960 9576 c0 -2 62 -45 139 -95 121 -81 143 -92 176 -89 36 3 35 4
-106 96 -107 68 -152 92 -176 92 -18 0 -33 -2 -33 -4z"/>
<path d="M13942 9549 c2 -18 38 -46 143 -117 186 -124 175 -118 175 -87 0 22
-21 39 -146 121 -172 113 -177 115 -172 83z"/>
<path d="M5060 9482 c0 -24 17 -38 146 -122 192 -125 176 -117 172 -85 -2 23
-29 44 -160 131 -153 100 -158 103 -158 76z"/>
<path d="M13940 9432 c0 -15 42 -47 155 -121 85 -56 157 -101 160 -101 3 0 5
10 5 23 0 17 -30 41 -147 117 -81 52 -153 96 -160 98 -7 2 -13 -5 -13 -16z"/>
<path d="M5060 9367 c0 -21 24 -41 146 -122 171 -113 174 -114 174 -86 0 16
-36 45 -147 119 -82 54 -154 102 -160 106 -9 5 -13 0 -13 -17z"/>
<path d="M13942 9318 c2 -17 40 -48 133 -111 72 -49 142 -95 158 -103 26 -14
27 -14 27 10 0 19 -26 41 -154 125 -84 55 -156 101 -160 101 -4 0 -6 -10 -4
-22z"/>
<path d="M5060 9247 c0 -21 24 -40 156 -126 85 -55 157 -101 160 -101 2 0 4
11 4 24 0 19 -26 41 -152 122 -83 55 -155 101 -160 102 -4 2 -8 -7 -8 -21z"/>
<path d="M13942 9198 c2 -15 47 -50 161 -124 145 -96 157 -101 157 -79 0 21
-25 41 -150 125 -82 55 -154 100 -160 100 -6 0 -10 -10 -8 -22z"/>
<path d="M5060 9136 c0 -21 19 -38 118 -104 64 -43 136 -91 160 -106 l42 -26
0 25 c0 24 -64 71 -307 228 -9 6 -13 1 -13 -17z"/>
<path d="M13942 9089 c2 -18 40 -49 153 -126 83 -56 153 -102 158 -102 4 -1 7
9 7 22 0 17 -31 42 -152 122 -83 55 -155 102 -160 104 -5 2 -8 -7 -6 -20z"/>
<path d="M5060 9017 c0 -20 26 -42 153 -126 84 -55 156 -101 160 -101 4 0 7
10 7 23 0 17 -29 41 -146 117 -81 52 -153 99 -160 103 -10 6 -14 1 -14 -16z"/>
<path d="M13942 8969 c2 -18 38 -46 143 -117 186 -124 175 -118 175 -87 0 22
-21 39 -146 121 -172 113 -177 115 -172 83z"/>
<path d="M5060 8903 c0 -25 16 -39 146 -123 190 -124 174 -115 174 -87 0 20
-28 42 -160 130 -155 104 -160 106 -160 80z"/>
<path d="M13940 8852 c0 -13 46 -50 160 -125 155 -104 160 -106 160 -80 0 25
-17 39 -147 123 -81 52 -153 96 -160 98 -7 2 -13 -5 -13 -16z"/>
<path d="M10066 8833 c4 -15 8 -30 10 -32 15 -17 290 -188 292 -181 8 23 -29
57 -151 138 -174 116 -159 109 -151 75z"/>
<path d="M5060 8786 c0 -28 4 -31 203 -159 111 -72 117 -75 117 -52 0 21 -24
41 -147 123 -82 54 -154 101 -160 106 -9 5 -13 0 -13 -18z"/>
<path d="M13942 8738 c2 -17 40 -48 133 -111 72 -49 142 -95 158 -103 26 -14
27 -14 27 10 0 19 -26 41 -154 125 -84 55 -156 101 -160 101 -4 0 -6 -10 -4
-22z"/>
<path d="M10092 8699 c2 -18 40 -49 156 -127 85 -57 156 -101 159 -99 22 22
-85 107 -305 241 -10 6 -13 2 -10 -15z"/>
<path d="M8870 8683 c0 -12 44 -47 133 -104 200 -131 187 -124 187 -105 0 9
-60 56 -147 114 -187 124 -173 117 -173 95z"/>
<path d="M5060 8667 c0 -21 24 -40 156 -126 85 -55 157 -101 160 -101 2 0 4
11 4 24 0 19 -26 41 -152 122 -83 55 -155 101 -160 102 -4 2 -8 -7 -8 -21z"/>
<path d="M13940 8620 c0 -14 31 -40 106 -90 90 -61 110 -71 142 -68 36 3 35 4
-99 91 -75 48 -139 87 -143 87 -3 0 -6 -9 -6 -20z"/>
<path d="M10090 8583 c0 -25 15 -38 146 -123 81 -52 153 -99 160 -103 10 -6
14 -1 14 17 0 22 -22 40 -147 124 -82 54 -154 102 -160 106 -9 5 -13 -1 -13
-21z"/>
<path d="M15020 8588 c0 -19 30 -42 151 -123 83 -55 155 -101 160 -103 5 -2 9
6 9 17 0 16 -37 45 -147 119 -82 54 -154 102 -160 106 -9 5 -13 0 -13 -16z"/>
<path d="M5062 8554 c5 -42 85 -96 134 -92 l37 3 -87 58 c-86 57 -87 58 -84
31z"/>
<path d="M8908 8563 c17 -31 71 -73 121 -95 71 -30 68 -16 -5 33 -138 92 -129
86 -116 62z"/>
<path d="M13940 8505 c0 -30 26 -45 77 -45 l38 0 -52 35 c-29 19 -55 35 -58
35 -3 0 -5 -11 -5 -25z"/>
<path d="M15020 8487 c0 -20 27 -42 160 -130 149 -99 160 -105 160 -82 0 21
-23 40 -147 123 -82 54 -154 102 -160 106 -9 5 -13 0 -13 -17z"/>
<path d="M10076 8477 c-3 -12 -4 -22 -3 -23 15 -14 314 -204 320 -204 5 0 7
10 5 22 -2 15 -47 50 -160 124 -143 93 -157 100 -162 81z"/>
<path d="M5312 8386 c2 -18 15 -34 36 -48 l34 -21 -4 27 c-2 18 -15 34 -36 48
l-34 21 4 -27z"/>
<path d="M10046 8385 c-3 -9 -6 -18 -6 -21 0 -2 74 -53 164 -113 161 -108 176
-114 176 -71 0 6 -118 86 -306 207 -19 12 -22 12 -28 -2z"/>
<path d="M15020 8377 c0 -20 27 -42 153 -126 84 -55 156 -101 161 -101 4 0 6
10 4 23 -2 16 -41 47 -143 115 -186 123 -175 118 -175 89z"/>
<path d="M10006 8294 c-3 -9 -6 -18 -6 -20 0 -11 322 -214 331 -209 24 16 -2
40 -143 132 -189 123 -175 116 -182 97z"/>
<path d="M5310 8273 c0 -25 17 -39 148 -124 185 -122 172 -115 172 -86 0 20
-27 42 -160 130 -155 104 -160 106 -160 80z"/>
<path d="M15020 8263 c0 -25 16 -38 132 -113 72 -47 144 -93 160 -103 l28 -19
0 24 c0 21 -26 42 -160 131 -155 104 -160 106 -160 80z"/>
<path d="M9951 8211 c-10 -17 6 -30 151 -125 144 -95 164 -105 177 -91 8 8 13
16 10 18 -5 5 -300 201 -316 210 -7 5 -16 -1 -22 -12z"/>
<path d="M5310 8155 c0 -20 24 -40 147 -121 175 -114 176 -115 171 -83 -3 23
-85 83 -270 199 l-48 30 0 -25z"/>
<path d="M15020 8147 c0 -20 25 -41 153 -126 84 -55 156 -101 160 -101 4 0 7
10 7 23 0 17 -28 40 -132 107 -72 47 -144 93 -160 103 l-28 19 0 -25z"/>
<path d="M9881 8136 c-10 -12 5 -26 86 -78 234 -152 226 -147 246 -136 11 5
15 13 11 18 -21 18 -314 210 -323 210 -4 0 -14 -6 -20 -14z"/>
<path d="M9806 8074 c-11 -7 -18 -15 -15 -17 2 -2 75 -49 162 -105 137 -89
160 -101 178 -91 26 13 32 8 -126 111 -71 46 -141 91 -155 100 -22 15 -27 15
-44 2z"/>
<path d="M5312 8039 c2 -18 40 -49 153 -126 83 -56 153 -102 158 -102 4 -1 7
9 7 22 0 17 -31 42 -152 122 -83 55 -155 102 -160 104 -5 2 -8 -7 -6 -20z"/>
<path d="M15020 8027 c0 -19 28 -41 148 -119 187 -121 172 -114 172 -85 0 21
-24 41 -155 126 -85 56 -157 101 -160 101 -3 0 -5 -10 -5 -23z"/>
<path d="M9710 8020 c-18 -11 -34 2 146 -118 113 -75 157 -99 173 -95 12 3 21
9 19 13 -4 10 -305 210 -316 210 -4 0 -14 -4 -22 -10z"/>
<path d="M8877 7989 c-5 -18 15 -34 131 -110 128 -83 189 -109 176 -75 -4 11
-286 206 -298 206 -2 0 -6 -9 -9 -21z"/>
<path d="M9010 7995 c0 -2 55 -39 133 -89 l27 -18 0 30 c0 19 -6 32 -17 37
-24 9 -143 43 -143 40z"/>
<path d="M9600 7978 c-23 -8 -14 -16 128 -109 137 -89 202 -118 202 -91 0 5
-57 47 -127 94 -188 124 -175 117 -203 106z"/>
<path d="M4492 7975 c2 -3 67 -46 143 -95 118 -78 143 -91 174 -88 35 3 32 5
-107 96 -113 73 -150 92 -179 92 -20 0 -34 -2 -31 -5z"/>
<path d="M4670 7976 c0 -2 63 -45 139 -95 115 -75 147 -91 178 -91 37 0 33 4
-107 95 -108 71 -153 95 -177 95 -18 0 -33 -2 -33 -4z"/>
<path d="M4850 7975 c0 -2 61 -45 135 -95 116 -78 140 -90 176 -90 l42 0 -144
95 c-107 70 -152 95 -176 95 -18 0 -33 -2 -33 -5z"/>
<path d="M5022 7975 c2 -3 67 -46 143 -95 115 -76 143 -91 171 -88 33 3 28 7
-106 96 -112 73 -148 92 -177 92 -20 0 -34 -2 -31 -5z"/>
<path d="M5200 7976 c0 -2 62 -44 138 -95 116 -77 144 -91 177 -91 39 0 37 2
-105 95 -107 70 -154 95 -177 95 -18 0 -33 -2 -33 -4z"/>
<path d="M8550 7975 c0 -2 61 -46 136 -95 88 -59 143 -90 157 -88 16 2 -15 27
-121 96 -125 81 -172 104 -172 87z"/>
<path d="M8690 7976 c0 -2 62 -44 138 -95 115 -76 144 -91 177 -91 39 0 37 2
-102 95 -113 75 -150 95 -178 95 -19 0 -35 -2 -35 -4z"/>
<path d="M13336 7971 c5 -5 69 -47 142 -95 84 -54 143 -86 160 -86 21 0 -5 21
-118 95 -81 53 -156 95 -169 95 -15 0 -21 -4 -15 -9z"/>
<path d="M13618 7884 c125 -83 148 -95 180 -92 36 3 35 5 -106 96 -115 74
-149 92 -179 92 -36 0 -32 -4 105 -96z"/>
<path d="M13660 7976 c0 -2 62 -44 138 -95 115 -76 144 -91 177 -91 39 0 37 2
-102 95 -113 75 -150 95 -178 95 -19 0 -35 -2 -35 -4z"/>
<path d="M13844 7971 c3 -5 66 -48 140 -95 110 -71 141 -87 167 -84 31 3 24 9
-107 96 -105 69 -148 92 -172 92 -18 0 -31 -4 -28 -9z"/>
<path d="M14011 7976 c2 -2 66 -45 143 -96 119 -78 143 -91 174 -88 35 3 32 5
-107 96 -112 73 -150 92 -178 92 -20 0 -34 -2 -32 -4z"/>
<path d="M14200 7967 c8 -8 72 -51 141 -95 103 -68 132 -82 165 -82 38 0 36 3
-105 95 -114 75 -152 95 -180 95 -30 0 -33 -2 -21 -13z"/>
<path d="M14498 7884 c125 -83 148 -95 180 -92 36 3 35 4 -105 96 -116 75
-149 92 -180 92 -37 0 -33 -3 105 -96z"/>
<path d="M14540 7976 c0 -2 62 -44 138 -95 115 -76 144 -91 177 -91 39 0 37 2
-102 95 -113 75 -150 95 -178 95 -19 0 -35 -2 -35 -4z"/>
<path d="M14724 7972 c3 -5 65 -48 139 -95 107 -70 142 -87 171 -87 36 0 31 4
-106 95 -108 71 -151 95 -176 95 -18 0 -31 -4 -28 -8z"/>
<path d="M15027 7885 c117 -78 149 -95 180 -95 36 0 32 4 -104 95 -117 78
-149 95 -180 95 -36 0 -32 -4 104 -95z"/>
<path d="M9446 7941 c5 -5 71 -50 147 -100 121 -80 143 -92 175 -89 36 3 35 4
-110 101 -120 79 -154 97 -185 97 -22 0 -33 -4 -27 -9z"/>
<path d="M9280 7936 c0 -2 57 -41 127 -87 89 -58 139 -85 169 -89 24 -4 41 -3
39 1 -3 4 -65 46 -138 93 -96 62 -142 86 -165 86 -18 0 -32 -2 -32 -4z"/>
<path d="M4999 7188 c-75 -50 -117 -209 -91 -345 7 -32 21 -107 32 -168 12
-60 31 -141 42 -180 22 -71 68 -278 63 -283 -1 -1 -25 13 -53 32 -74 50 -144
71 -232 70 -89 0 -146 -25 -183 -79 l-23 -34 -29 19 c-40 26 -172 43 -305 38
-143 -5 -196 -25 -232 -87 l-23 -41 -98 0 c-127 0 -180 -14 -224 -58 -40 -40
-81 -122 -90 -179 -7 -46 -17 -63 -192 -323 -28 -41 -76 -100 -107 -130 -91
-89 -114 -157 -94 -271 17 -94 42 -133 160 -254 59 -60 131 -144 160 -185 42
-59 237 -307 260 -330 3 -3 16 -25 29 -50 40 -75 209 -328 290 -435 91 -120
289 -321 386 -393 39 -28 104 -71 146 -94 75 -42 92 -63 119 -143 7 -19 242
-548 281 -632 11 -22 51 -133 88 -245 89 -268 116 -328 147 -328 12 0 26 5 29
10 4 6 -11 54 -33 108 -22 53 -52 133 -66 177 -65 204 -102 297 -241 605 -129
285 -165 370 -159 370 3 0 37 -14 77 -30 122 -53 177 -56 177 -11 0 19 -19 31
-48 31 -8 0 -45 13 -81 29 -36 16 -106 46 -156 67 -144 61 -282 160 -425 303
-139 139 -219 242 -365 466 -54 83 -117 179 -141 216 -23 36 -83 116 -133 178
-50 62 -110 140 -133 174 -23 34 -92 114 -153 177 -62 63 -119 129 -128 147
l-16 31 39 -5 c41 -6 58 12 23 23 -65 21 -71 26 -77 62 -9 57 1 83 30 76 27
-7 32 7 9 26 -8 7 -15 16 -15 21 0 5 35 46 78 91 43 46 88 102 101 125 l24 41
29 -59 c17 -33 40 -67 53 -75 21 -14 27 -14 55 1 48 25 119 94 141 137 26 51
24 90 -11 183 -36 96 -36 97 -8 93 28 -4 61 -61 77 -131 6 -29 12 -110 13
-182 3 -120 1 -134 -21 -175 -33 -63 -204 -231 -264 -259 -38 -19 -47 -28 -45
-45 5 -33 43 -32 99 3 27 16 49 28 49 25 0 -17 -34 -65 -57 -82 -22 -16 -25
-23 -16 -33 17 -17 66 21 90 69 10 21 24 37 31 34 12 -4 16 3 26 51 4 15 11
25 16 22 5 -3 34 -71 66 -151 31 -80 66 -156 76 -170 27 -33 90 -64 131 -64
l34 0 -12 -45 c-13 -54 -14 -100 0 -100 5 0 14 20 20 45 6 25 14 39 16 31 10
-29 29 1 30 47 l2 47 6 -39 c12 -79 41 -37 41 61 0 17 5 35 10 38 6 4 10 -7
10 -27 1 -55 35 -201 48 -206 15 -5 15 35 2 98 -22 101 -22 97 -5 75 9 -11 38
-33 65 -50 26 -16 77 -50 112 -75 35 -25 90 -62 123 -82 100 -62 172 -141 205
-228 18 -47 27 -57 42 -42 18 18 -45 136 -106 196 -81 79 -108 101 -154 125
-23 12 -42 26 -42 31 0 6 -10 10 -23 10 -13 0 -34 10 -47 22 l-23 21 23 9 c18
7 30 2 61 -26 38 -35 89 -66 109 -66 27 0 4 28 -50 59 -33 19 -60 38 -60 41 0
4 19 19 42 34 37 24 45 26 70 15 16 -6 56 -12 91 -13 l62 -1 13 -40 c20 -57
62 -205 69 -238 5 -27 20 -44 30 -34 6 7 -12 86 -39 173 -10 33 -20 69 -22 80
-2 10 -7 31 -11 46 -5 20 -2 29 13 37 18 10 22 5 45 -56 13 -37 29 -69 36 -71
17 -6 14 17 -14 99 -21 62 -24 78 -14 101 14 34 22 35 43 3 9 -14 21 -25 26
-25 18 0 11 32 -13 64 -21 28 -23 37 -16 91 4 33 5 130 2 215 -4 122 -2 165
11 204 8 27 12 54 9 59 -3 6 -1 7 5 3 6 -4 16 4 23 16 7 13 29 42 50 66 24 27
46 69 60 110 11 37 30 82 40 100 12 21 17 42 13 58 -4 17 -1 31 11 44 22 24
11 39 -15 22 -18 -11 -20 -9 -20 14 0 44 -25 21 -28 -27 -2 -24 -10 -59 -18
-78 -9 -18 -17 -39 -19 -45 -1 -6 -7 -24 -13 -39 -7 -15 -15 -39 -18 -53 -10
-38 -133 -189 -139 -171 -4 8 -5 20 -3 28 2 8 -4 14 -12 14 -19 0 -25 -47 -10
-75 9 -18 8 -24 -6 -34 -16 -13 -16 -14 0 -23 16 -9 17 -29 14 -229 -3 -213
-4 -221 -30 -274 l-26 -55 -1 36 c-1 51 -37 161 -62 193 -17 22 -29 26 -68 26
l-48 0 -21 83 c-12 45 -30 112 -41 149 l-19 67 46 3 c65 4 69 28 4 28 -36 0
-52 4 -56 16 -9 24 -7 36 5 29 19 -12 54 4 66 30 10 21 9 27 -7 35 -10 6 -32
10 -49 10 -28 0 -31 3 -31 33 0 75 76 332 140 474 46 102 85 151 130 164 35
11 42 10 53 -3 14 -19 63 -18 60 0 -8 36 124 -17 190 -78 l52 -48 23 -173 c13
-96 27 -188 32 -206 8 -30 6 -33 -25 -43 -43 -14 -64 -38 -45 -50 9 -6 20 -4
30 4 35 29 75 36 195 36 104 0 125 2 125 15 0 12 -16 15 -77 16 l-78 0 38 16
c20 8 37 19 37 23 0 19 -19 18 -69 0 -28 -11 -55 -20 -59 -20 -10 0 -49 273
-57 400 -6 89 -29 242 -41 275 -5 11 1 15 21 15 20 0 26 4 23 18 -2 9 -8 17
-13 17 -58 3 -76 49 -22 59 41 8 61 21 53 34 -4 8 -21 7 -52 -3 -40 -12 -46
-12 -51 3 -4 9 -1 18 5 20 17 5 15 32 -2 32 -16 0 -27 41 -56 212 -18 109 -19
137 -10 190 20 110 64 156 136 142 36 -7 56 -28 94 -104 51 -100 130 -365 184
-615 19 -88 38 -168 41 -177 5 -13 2 -18 -11 -18 -34 -1 -94 -34 -86 -47 6 -9
17 -9 47 2 22 8 47 14 56 15 10 0 33 -37 66 -107 63 -132 65 -140 98 -333 28
-165 91 -458 155 -724 21 -88 55 -237 74 -331 20 -93 41 -186 46 -206 6 -20
10 -59 10 -88 0 -55 18 -100 159 -394 39 -81 91 -207 117 -280 45 -131 112
-269 182 -376 20 -31 42 -66 49 -79 20 -36 200 -299 276 -402 117 -158 180
-230 203 -230 30 0 39 29 17 56 -10 12 -52 64 -94 116 -42 51 -102 129 -133
173 -31 44 -65 91 -75 105 -43 58 -204 314 -256 407 -30 54 -75 155 -99 224
-61 172 -73 200 -172 404 -75 156 -89 194 -107 285 -11 58 -35 177 -54 265
-19 88 -36 171 -39 185 -3 13 -21 90 -40 170 -88 366 -127 550 -164 770 -26
157 -39 198 -111 340 -48 96 -61 136 -84 245 -51 248 -103 434 -171 605 -44
112 -84 174 -124 195 -44 23 -121 19 -161 -7z m-541 -1007 c64 -19 65 -28 22
-129 -46 -107 -104 -305 -121 -413 -12 -83 -1 -168 43 -314 12 -38 23 -74 24
-80 1 -5 12 -48 23 -95 12 -47 21 -110 21 -140 l0 -55 -24 51 c-13 28 -42 68
-66 90 -23 21 -55 51 -71 67 -22 20 -40 27 -68 27 -44 0 -66 -20 -86 -77 l-13
-38 -11 40 c-6 22 -26 94 -44 160 l-34 120 21 16 c12 8 29 19 40 22 11 5 16
13 12 22 -3 9 1 18 9 21 8 4 15 13 15 21 0 12 -7 14 -27 9 -16 -4 -35 -8 -43
-10 -18 -4 -26 -36 -9 -36 7 0 4 -6 -7 -14 -10 -8 -20 -14 -21 -13 -2 3 -55
251 -58 277 -15 121 -16 212 -5 261 17 71 16 69 51 57 42 -14 159 -1 159 18 0
12 -15 14 -77 12 -68 -3 -78 -1 -75 14 1 9 -2 19 -8 23 -7 4 -7 12 0 25 10 18
13 18 51 5 53 -19 69 -19 69 0 0 8 -7 15 -15 15 -22 0 -18 17 5 23 14 4 18 10
13 23 -6 16 3 17 133 11 76 -3 154 -10 172 -16z m-368 -17 c0 -8 -5 -12 -10
-9 -6 4 -8 11 -5 16 9 14 15 11 15 -7z m-204 -100 l52 -6 -14 -52 c-38 -141
-1 -384 122 -819 l57 -197 -18 -45 c-22 -58 -68 -105 -103 -105 -15 0 -42 9
-60 20 -27 17 -31 23 -23 39 8 15 25 20 81 23 82 4 93 14 85 73 -7 48 -56 156
-92 203 -43 57 -127 80 -165 45 -12 -11 -18 -31 -18 -62 l-1 -46 -25 48 -25
48 36 41 c64 75 80 121 83 238 6 193 -33 349 -100 405 -34 29 -55 31 -103 11
-34 -15 -34 -15 -25 10 32 83 64 113 134 125 58 9 65 10 122 3z m-204 -300
c34 -87 34 -117 3 -170 -28 -48 -118 -119 -140 -110 -27 10 -55 69 -55 116 0
35 8 59 33 97 40 65 109 143 122 139 5 -1 22 -34 37 -72z m791 -231 c-7 -2
-21 -2 -30 0 -10 3 -4 5 12 5 17 0 24 -2 18 -5z m-531 -345 c31 -35 70 -114
89 -177 16 -53 7 -60 -67 -58 -39 1 -58 -4 -73 -17 -20 -18 -21 -18 -32 10 -6
16 -18 80 -26 142 -12 92 -12 116 -2 128 20 24 79 9 111 -28z m386 -85 c62
-55 112 -132 112 -174 0 -20 -58 -75 -93 -88 -52 -20 -103 -14 -125 14 -44 55
-54 244 -17 285 28 31 52 24 123 -37z m310 -77 c31 -79 37 -119 22 -156 -14
-34 -40 -38 -100 -16 -26 10 -34 18 -31 32 2 11 5 61 5 112 l1 93 40 -3 c39
-3 41 -5 63 -62z m-188 -161 c0 -8 -43 -45 -52 -45 -5 0 4 11 19 25 29 26 33
28 33 20z"/>
<path d="M4110 5405 c0 -10 7 -15 18 -13 21 4 19 22 -2 26 -10 2 -16 -3 -16
-13z"/>
<path d="M13979 7190 c-45 -23 -96 -81 -120 -134 -23 -52 -24 -135 -3 -287 10
-69 17 -196 18 -324 2 -177 6 -223 24 -290 14 -56 23 -126 27 -230 3 -82 9
-208 14 -280 4 -71 5 -157 2 -190 -6 -57 -7 -60 -31 -57 -14 1 -56 -5 -93 -14
-44 -10 -91 -15 -135 -12 -195 14 -342 -56 -378 -179 l-16 -54 -36 8 c-68 15
-164 8 -214 -14 -59 -27 -134 -95 -149 -137 -11 -31 -11 -31 -84 -31 -65 0
-78 -3 -116 -30 -53 -38 -85 -97 -106 -202 -16 -77 -16 -87 5 -259 18 -145 22
-225 21 -424 0 -144 4 -274 11 -315 30 -187 77 -346 146 -496 39 -85 46 -109
55 -210 13 -130 6 -338 -16 -514 -8 -65 -15 -154 -15 -197 0 -75 1 -78 33
-101 121 -91 295 -127 615 -128 145 0 235 6 343 21 229 32 309 59 393 132 l39
34 -13 269 c-14 278 -8 397 22 491 14 42 14 42 210 157 73 42 183 115 243 161
265 202 631 428 714 441 71 11 107 26 144 59 30 26 56 37 115 49 102 21 292
45 422 52 132 8 166 19 191 59 24 39 24 79 0 132 -27 59 -82 107 -182 159
-206 106 -394 113 -719 26 -65 -18 -140 -31 -173 -31 -55 0 -448 47 -456 55
-9 10 -42 178 -66 340 -48 331 -93 551 -205 990 -74 293 -79 328 -90 564 -7
164 -13 210 -34 281 -14 47 -41 182 -61 300 -40 236 -61 297 -121 349 -29 26
-43 31 -87 31 -31 -1 -66 -9 -88 -20z m138 -60 c18 -11 43 -41 57 -68 29 -58
67 -243 96 -472 11 -91 29 -210 40 -265 30 -158 50 -308 66 -495 9 -111 28
-191 77 -330 45 -127 68 -221 87 -363 5 -43 17 -91 25 -107 10 -18 15 -57 15
-107 0 -179 20 -390 44 -474 14 -46 24 -85 23 -86 -2 -1 -133 41 -159 52 -25
10 -23 -17 2 -33 29 -18 206 -87 270 -105 85 -24 217 -47 272 -47 55 0 291 41
408 70 171 43 358 42 484 -4 96 -34 222 -114 257 -160 28 -39 37 -87 21 -113
-5 -8 -57 -16 -148 -23 -127 -9 -317 -34 -453 -60 -29 -5 -55 -10 -57 -10 -1
0 -23 -18 -49 -40 -25 -22 -64 -44 -88 -50 -95 -25 -193 -75 -417 -215 -63
-39 -144 -86 -180 -103 -38 -19 -102 -65 -155 -112 -139 -125 -249 -190 -448
-266 -105 -40 -117 -48 -117 -80 0 -28 27 -38 64 -25 14 6 26 9 26 8 0 -2 -10
-30 -21 -62 -50 -141 -61 -326 -34 -560 15 -123 14 -131 -2 -144 -100 -77
-380 -124 -733 -122 -231 0 -331 12 -460 53 -87 28 -83 10 -49 193 20 109 23
162 23 330 0 143 -4 219 -15 267 -15 66 -15 68 5 82 l21 14 -23 43 c-12 24
-45 85 -72 134 -62 111 -102 214 -137 347 -34 131 -38 324 -10 459 16 77 16
90 3 130 -32 96 -39 166 -33 351 5 191 13 234 50 288 35 52 70 73 130 78 l54
4 7 -148 c8 -177 13 -200 66 -284 66 -106 224 -371 256 -427 28 -51 28 -54 12
-80 -37 -63 -127 -92 -185 -60 -12 7 -70 64 -130 128 -87 94 -116 133 -152
205 -24 48 -51 119 -60 156 -9 37 -20 68 -24 68 -16 0 5 -134 35 -230 l30 -95
140 -138 c141 -140 180 -167 240 -167 47 1 110 32 139 69 25 31 26 31 55 16
69 -36 221 -10 303 52 43 33 76 105 61 132 -19 36 -10 44 13 11 40 -59 71 -75
145 -74 99 1 150 34 191 124 41 90 23 279 -38 399 l-22 43 42 56 c58 78 222
241 289 285 30 20 48 37 40 37 -31 0 -186 -117 -297 -224 -120 -115 -132 -120
-133 -51 -1 71 -59 267 -97 328 -17 27 -30 37 -49 37 -31 0 -30 -6 11 -115 22
-57 115 -397 115 -419 0 -3 5 -6 10 -6 6 0 10 9 10 20 0 68 52 -39 71 -144 20
-120 -3 -232 -57 -275 -27 -21 -110 -29 -148 -15 -9 3 -44 45 -78 93 -34 47
-85 111 -113 143 -47 50 -57 71 -104 205 -85 243 -134 420 -134 490 -1 87 35
145 118 187 56 28 70 31 200 37 77 3 153 11 168 18 40 16 86 14 94 -4 3 -9 -9
-38 -26 -67 -18 -28 -30 -52 -28 -54 9 -10 78 51 105 93 55 86 64 161 37 300
-9 43 -20 161 -25 263 -6 102 -14 223 -20 270 -5 47 -19 182 -31 300 -11 118
-24 244 -29 280 -13 95 -1 287 20 330 24 48 64 88 102 105 44 19 57 18 95 -5z
m-806 -2115 c15 -95 74 -355 99 -436 12 -40 43 -102 79 -155 74 -113 97 -159
116 -231 20 -77 20 -77 -21 -123 -59 -65 -208 -104 -257 -67 -28 21 -355 541
-366 583 -14 51 -51 289 -53 339 -1 35 4 44 50 86 70 64 113 78 239 76 l102
-2 12 -70z"/>
<path d="M14135 6549 c-25 -17 -42 -20 -102 -16 -74 4 -83 -3 -35 -27 68 -34
149 -26 191 18 41 44 2 62 -54 25z"/>
<path d="M14185 6042 c-31 -15 -75 -28 -115 -32 -64 -6 -64 -7 -35 -19 59 -25
196 4 212 45 11 30 -12 32 -62 6z"/>
<path d="M14280 5424 c-58 -28 -91 -38 -147 -42 -81 -5 -94 -17 -32 -27 85
-15 250 30 266 72 13 33 -15 32 -87 -3z"/>
<path d="M13436 5164 c-42 -23 -18 -41 24 -19 18 9 56 18 85 18 29 1 51 5 48
10 -8 13 -127 7 -157 -9z"/>
<path d="M14238 4844 c-43 -36 -78 -70 -78 -75 0 -23 31 -3 105 66 99 92 78
98 -27 9z"/>
<path d="M13755 4549 c-16 -11 -54 -27 -82 -36 -50 -16 -63 -26 -45 -36 15 -9
98 23 132 52 41 34 38 46 -5 20z"/>
<path d="M12921 4284 c-24 -13 -55 -24 -68 -24 -14 0 -21 -4 -18 -10 17 -27
145 10 159 45 8 22 -22 17 -73 -11z"/>
<path d="M15384 4239 c-29 -48 -33 -224 -6 -251 23 -23 29 4 14 64 -13 51 -13
73 -4 127 11 66 10 82 -4 60z"/>
<path d="M14820 4184 c-58 -92 -99 -245 -82 -309 14 -52 27 -28 33 64 8 100
18 140 61 225 36 73 29 85 -12 20z"/>
<path d="M13934 3981 c-242 -214 -341 -438 -279 -635 22 -69 41 -88 61 -61 8
11 12 26 9 33 -3 8 -8 60 -11 116 -12 206 55 355 250 549 43 43 77 80 74 82
-2 2 -49 -36 -104 -84z"/>
<path d="M14681 3973 c-21 -105 -10 -216 18 -188 7 7 7 23 0 50 -7 24 -9 70
-4 117 3 43 4 78 2 78 -2 0 -9 -26 -16 -57z"/>
<path d="M13593 3352 c7 -61 64 -175 90 -180 25 -5 21 14 -17 77 -18 31 -40
74 -47 96 -21 64 -32 66 -26 7z"/>
<path d="M12910 3232 c0 -29 128 -172 154 -172 20 0 -1 34 -42 69 -27 22 -60
56 -73 76 -23 33 -39 44 -39 27z"/>
<path d="M13040 3171 c0 -18 91 -81 133 -92 50 -13 77 4 31 21 -71 26 -91 34
-114 50 -43 28 -50 32 -50 21z"/>
<path d="M13190 3172 c0 -17 39 -44 86 -58 60 -18 84 -18 84 0 0 13 -34 27
-147 61 -13 3 -23 2 -23 -3z"/>
<path d="M13170 4653 c-49 -8 -88 -24 -105 -43 -29 -32 -10 -34 60 -6 38 15
85 26 112 26 28 0 43 4 38 9 -13 11 -73 19 -105 14z"/>
<path d="M10745 6881 c-27 -10 -72 -29 -100 -41 -27 -13 -81 -26 -119 -30 -61
-7 -73 -11 -98 -39 -59 -66 -18 -185 76 -221 22 -8 26 -14 18 -22 -7 -7 -12
-20 -12 -30 0 -14 -8 -18 -40 -18 -60 0 -112 -25 -163 -80 -30 -31 -52 -47
-62 -44 -43 17 -240 -141 -276 -221 -39 -85 -22 -184 61 -366 35 -75 39 -90
29 -112 -6 -14 -21 -29 -34 -35 -20 -9 -29 -4 -81 49 -66 67 -139 109 -189
109 -29 0 -37 6 -59 44 -55 95 -127 132 -193 99 -58 -28 -83 -73 -83 -152 l-1
-66 -96 -80 c-209 -173 -303 -245 -418 -319 -165 -107 -186 -121 -220 -149
-108 -88 -358 -175 -585 -203 -19 -2 -73 -9 -119 -15 -75 -9 -132 -19 -277
-49 -22 -5 -85 -20 -140 -34 -217 -55 -507 -107 -584 -105 -58 2 -75 -1 -75
-11 0 -17 35 -28 92 -29 51 -1 365 60 628 123 181 43 307 66 440 81 98 11 300
54 383 82 110 36 198 84 267 142 32 28 63 51 67 51 6 0 81 48 213 137 22 15
64 44 93 66 l53 38 44 -25 c24 -14 57 -40 75 -57 17 -17 34 -28 38 -24 4 4
-13 25 -38 47 -25 23 -35 36 -22 29 14 -7 22 -8 22 -2 0 6 -14 18 -30 26 -17
9 -28 20 -25 25 4 6 -1 10 -10 10 -11 0 -15 -5 -11 -16 3 -9 2 -12 -5 -9 -5 4
-9 10 -7 14 2 5 61 56 132 115 l129 108 27 -89 c28 -95 49 -140 86 -190 l24
-31 -23 -15 c-45 -30 -145 -206 -130 -229 9 -16 33 -7 33 12 0 31 37 104 68
133 l27 26 75 -59 c41 -33 78 -60 83 -60 15 0 103 -63 120 -87 18 -23 18 -23
-13 -23 -36 0 -70 -16 -70 -32 0 -7 5 -7 14 1 8 7 34 11 57 9 40 -3 44 -6 52
-38 10 -41 5 -191 -12 -310 -12 -87 -48 -217 -62 -226 -8 -5 -79 21 -79 30 0
2 9 2 20 -1 30 -8 24 4 -10 22 -29 15 -30 15 -30 -9 0 -26 40 -56 75 -56 8 0
15 -4 15 -8 0 -21 -102 -152 -152 -194 l-55 -47 -70 6 c-67 5 -71 5 -105 -25
-19 -18 -38 -29 -42 -25 -13 14 -5 115 14 167 23 59 42 81 73 81 18 0 20 6 18
85 -2 88 28 275 55 338 18 43 18 52 -1 52 -8 0 -21 -12 -29 -27 l-14 -28 -11
41 c-6 23 -14 62 -17 88 -7 51 -16 63 -32 43 -10 -12 3 -103 24 -169 5 -18 4
-18 -33 -3 -57 24 -81 42 -97 73 -16 32 -36 121 -36 162 0 40 -21 38 -39 -2
-12 -27 -12 -37 3 -76 9 -25 15 -47 13 -49 -4 -3 -22 37 -43 92 -7 19 -8 19
-11 -2 -10 -53 95 -187 174 -221 26 -12 57 -30 69 -39 21 -18 21 -18 3 -103
-10 -47 -18 -99 -18 -116 -1 -29 -5 -33 -45 -43 -53 -13 -152 -78 -200 -131
-101 -112 -100 -212 2 -253 41 -17 120 -20 142 -7 8 5 27 -1 51 -17 31 -20 38
-30 33 -48 -13 -52 63 -129 139 -142 31 -5 54 5 170 66 l135 71 4 -53 c6 -65
63 -194 90 -203 11 -3 21 -4 23 -2 2 1 -15 41 -37 87 -62 129 -55 189 30 283
40 44 141 98 184 98 49 0 56 -7 47 -53 -6 -34 -20 -54 -79 -110 -70 -68 -71
-69 -60 -102 29 -87 129 -82 178 10 20 38 27 -31 8 -90 -33 -107 -95 -165
-176 -165 -48 0 -200 34 -235 53 -11 6 -85 14 -165 18 -88 4 -217 19 -330 38
-166 29 -194 36 -270 75 -47 24 -121 55 -166 70 -98 32 -140 60 -168 111 -18
31 -30 41 -62 48 -77 17 -150 -3 -324 -86 -52 -25 -165 -66 -250 -92 -116 -35
-209 -72 -370 -149 -234 -113 -335 -153 -413 -164 -51 -7 -72 -27 -42 -38 20
-8 136 20 214 51 32 13 130 59 217 101 235 113 246 117 414 168 87 27 212 74
285 109 99 47 143 62 187 65 78 6 101 -2 117 -38 19 -45 79 -85 174 -116 45
-15 123 -47 172 -72 80 -40 109 -48 260 -74 96 -17 236 -33 320 -38 127 -6
166 -12 255 -40 71 -21 128 -32 176 -33 68 -2 73 -1 117 36 51 42 97 127 105
193 2 23 -1 65 -8 95 -7 30 -18 88 -25 129 l-13 75 26 20 c48 36 77 70 96 114
18 38 18 49 7 102 -18 88 -41 135 -116 234 -87 115 -104 143 -144 237 -39 91
-57 110 -133 138 -52 19 -111 51 -293 156 -33 19 -71 46 -85 60 -21 21 -23 26
-10 34 11 7 23 1 45 -20 17 -16 66 -50 110 -75 l80 -46 80 5 c95 7 156 13 249
27 54 8 71 7 78 -3 26 -40 142 -267 178 -348 151 -344 217 -560 285 -940 1 -8
12 -71 24 -140 35 -201 56 -257 90 -236 6 4 3 19 -9 39 -10 18 -23 66 -29 107
-25 168 -112 585 -153 729 -38 137 -163 438 -260 629 -43 84 -78 156 -78 160
0 3 22 -16 50 -43 27 -27 52 -46 56 -42 4 3 -9 21 -29 39 l-35 34 58 -1 c50 0
63 4 96 31 53 42 78 54 112 54 59 0 133 30 150 61 17 29 24 32 166 75 51 15
63 24 85 60 17 28 39 48 63 57 31 13 42 26 68 79 35 75 36 81 13 76 -10 -2
-31 -30 -48 -63 -24 -48 -36 -61 -62 -67 -22 -6 -38 -20 -57 -52 -25 -42 -28
-44 -127 -72 -91 -26 -104 -33 -121 -61 -21 -34 -51 -47 -149 -62 -27 -4 -58
-15 -71 -25 -13 -9 -40 -28 -60 -42 l-37 -26 -73 22 c-66 20 -79 21 -152 10
-45 -6 -88 -13 -98 -16 -9 -3 -2 10 18 31 41 44 42 64 8 122 -14 25 -39 76
-55 114 l-28 70 25 9 c14 6 27 10 29 10 2 0 7 -27 11 -60 8 -69 24 -90 25 -33
0 36 1 37 11 13 5 -14 7 -52 5 -85 -5 -51 -3 -57 7 -42 21 27 36 20 36 -18 0
-19 5 -35 11 -35 15 0 7 86 -14 140 -3 8 -17 62 -31 120 -15 58 -46 148 -71
200 -56 119 -81 212 -71 263 4 21 11 35 15 32 11 -6 131 54 131 66 0 13 0 12
-61 -21 -90 -49 -94 -35 -13 50 62 66 145 125 186 134 27 6 27 5 20 -26 -14
-65 -6 -131 26 -206 18 -41 41 -115 53 -165 34 -149 89 -275 89 -206 0 18 2
19 15 9 25 -21 18 9 -11 48 -18 23 -37 73 -56 149 -16 63 -40 138 -54 166 -45
95 -42 202 9 277 29 44 70 66 132 75 l50 6 56 -168 c35 -104 74 -196 101 -243
24 -41 57 -101 72 -132 14 -32 29 -58 32 -58 4 0 4 18 2 39 -3 37 -2 38 17 25
40 -28 37 -13 -6 29 -68 66 -124 174 -189 366 -56 166 -58 175 -44 203 38 74
222 126 300 85 64 -34 138 -146 218 -329 31 -70 69 -146 86 -169 16 -23 34
-58 40 -78 22 -85 9 -483 -18 -513 -14 -16 -13 -18 2 -18 23 0 36 41 36 118
l0 67 30 -50 c42 -70 64 -146 110 -382 47 -242 66 -291 207 -535 127 -218 137
-240 189 -382 44 -120 83 -186 110 -186 21 0 17 16 -15 61 -17 22 -46 89 -66
149 -27 81 -65 158 -147 302 -167 289 -205 379 -233 541 -3 21 -10 35 -14 33
-4 -3 -6 5 -4 18 6 28 -31 217 -58 292 -10 31 -32 79 -48 107 -28 50 -29 58
-34 207 -3 117 -8 166 -22 200 -9 25 -17 59 -16 76 1 17 -21 89 -48 159 -31
78 -60 176 -76 253 -14 70 -33 150 -42 177 -20 65 -69 151 -96 170 -30 21
-139 19 -202 -4z m200 -45 c39 -42 74 -144 109 -316 14 -74 43 -173 71 -243
25 -66 45 -121 43 -123 -2 -2 -28 52 -58 119 -63 146 -111 230 -153 275 -28
29 -30 35 -19 53 8 12 11 24 7 27 -3 4 -10 0 -16 -8 -6 -10 -7 -4 -2 19 4 25
3 32 -5 27 -7 -4 -12 -13 -12 -21 0 -22 -18 -27 -47 -12 -51 26 -192 6 -269
-38 -61 -36 -119 -12 -150 62 -29 68 -9 81 75 47 50 -20 58 -20 104 -8 28 7
57 20 66 28 13 14 13 19 -2 51 -16 34 -16 35 6 47 42 22 132 47 176 47 37 1
48 -4 76 -33z m-265 -87 c0 -14 -14 -23 -53 -34 -51 -15 -56 -14 -98 5 -24 11
-52 20 -63 20 -15 0 -16 3 -7 14 6 7 41 17 78 21 37 4 76 11 87 15 25 9 56
-14 56 -41z m-1067 -879 c55 -48 98 -140 108 -231 11 -95 48 -216 89 -286 33
-58 79 -88 149 -99 51 -8 64 -24 19 -24 -18 0 -50 -3 -71 -6 -32 -6 -36 -4
-31 10 5 14 3 15 -26 2 -27 -11 -36 -11 -63 3 -56 29 -121 78 -172 130 -41 42
-47 53 -35 61 8 5 23 10 32 10 38 0 25 19 -17 25 -25 4 -45 12 -45 17 0 5 -4
7 -9 4 -13 -8 -48 88 -75 208 -7 27 -6 28 10 11 14 -13 28 -16 63 -11 51 7 60
13 62 41 9 91 -17 135 -80 135 -34 1 -35 2 -17 15 31 24 72 18 109 -15z m-45
-32 c5 -7 13 -34 16 -60 6 -41 4 -48 -14 -58 -11 -6 -35 -10 -52 -8 -27 3 -33
9 -46 46 -12 38 -12 45 2 67 12 18 25 25 50 25 18 0 38 -6 44 -12z m214 -98
c6 0 3 -12 -7 -26 -21 -33 -11 -44 13 -14 15 18 24 22 46 16 34 -8 107 -85
141 -148 25 -47 26 -47 5 -58 -26 -14 -25 -28 4 -94 22 -48 29 -56 60 -62 20
-3 38 -10 41 -14 8 -13 -51 -70 -72 -70 -24 0 -120 35 -140 51 -42 36 -99 188
-113 308 -6 47 -13 95 -17 105 -4 15 -2 18 12 13 9 -4 21 -7 27 -7z m255 -306
c30 -63 31 -65 10 -62 -37 5 -85 129 -50 128 4 0 22 -30 40 -66z m-132 -364
c6 -4 28 -13 50 -20 57 -18 74 -36 112 -120 49 -109 59 -124 143 -236 65 -85
110 -170 110 -206 0 -5 -9 -4 -21 2 -11 6 -25 9 -32 7 -7 -2 5 -12 26 -22 27
-14 37 -25 37 -43 0 -24 0 -24 -29 7 -17 18 -39 31 -53 31 -22 0 -22 -1 7 -19
40 -25 79 -68 67 -75 -16 -10 -79 14 -106 40 -28 29 -35 21 -11 -13 8 -11 35
-27 59 -34 38 -11 43 -15 35 -31 -5 -10 -27 -29 -47 -43 -32 -21 -43 -23 -72
-15 -39 11 -91 0 -160 -35 -47 -24 -122 -97 -141 -138 -7 -13 -46 -39 -105
-68 -89 -44 -93 -45 -88 -22 15 60 -31 102 -98 88 -42 -10 -104 -49 -118 -75
-14 -27 -32 -26 -28 2 2 12 13 28 26 34 13 6 58 43 101 81 42 39 88 74 101 78
14 4 39 19 56 32 17 13 53 30 80 39 27 8 96 39 154 67 98 48 106 55 119 92 20
58 27 296 11 346 -17 49 -46 55 -35 7 15 -62 13 -246 -3 -309 l-15 -60 -106
-50 c-58 -28 -125 -57 -147 -64 l-42 -12 38 59 c53 82 87 179 95 271 3 43 11
90 17 105 6 15 11 79 12 142 1 97 -2 121 -20 157 -20 41 -14 48 21 23z m-496
-617 c-7 -10 -24 -31 -36 -46 -13 -16 -30 -54 -39 -85 -9 -31 -18 -58 -19 -60
-2 -2 -13 1 -24 8 -30 15 -94 -4 -126 -38 l-25 -27 0 28 c0 35 46 103 102 152
46 40 131 85 162 85 16 0 17 -2 5 -17z m-117 -205 c20 -17 32 -94 16 -104 -31
-20 -158 8 -158 34 0 18 35 55 64 68 39 17 58 17 78 2z m222 -59 l39 -11 -44
-39 c-24 -21 -52 -39 -61 -39 -26 0 -68 22 -68 35 0 16 29 41 60 54 32 13 29
13 74 0z m710 -152 c-9 -44 -61 -97 -94 -97 -28 0 -70 38 -70 63 0 6 33 45 73
86 l72 76 12 -50 c7 -27 10 -63 7 -78z m-573 43 c25 -14 25 -60 -1 -92 -40
-52 -116 -60 -169 -19 l-23 18 33 38 c50 57 114 79 160 55z"/>
<path d="M9930 4560 c0 -5 9 -10 19 -10 11 0 31 -13 44 -30 27 -32 37 -37 37
-19 0 19 -58 69 -79 69 -12 0 -21 -4 -21 -10z"/>
<path d="M9890 4544 c0 -7 5 -14 10 -14 6 0 10 -6 10 -13 0 -17 69 -92 77 -83
4 3 -7 20 -23 38 l-29 31 32 -21 c17 -13 34 -19 37 -14 3 5 -22 27 -54 50 -40
27 -60 36 -60 26z"/>
<path d="M10655 6576 c-36 -16 -81 -63 -71 -73 4 -4 12 0 17 9 5 10 25 20 44
24 20 3 35 12 35 20 0 8 9 14 21 14 11 0 17 5 14 10 -8 13 -24 12 -60 -4z"/>
<path d="M10754 6536 c-15 -18 -36 -26 -76 -31 -56 -7 -87 -19 -77 -30 4 -3
18 -1 33 5 15 5 42 10 59 10 36 0 71 21 87 51 15 26 -1 24 -26 -5z"/>
<path d="M10388 6399 c-34 -17 -58 -39 -43 -39 3 0 24 9 45 20 56 28 50 18
-10 -19 -28 -17 -48 -36 -45 -41 3 -6 33 8 66 31 33 22 59 42 57 43 -2 1 -10
7 -18 13 -11 8 -24 7 -52 -8z"/>
<path d="M4641 6201 c-18 -33 -13 -39 39 -50 69 -15 69 -15 68 20 -1 33 -3 34
-60 44 -30 5 -39 2 -47 -14z"/>
<path d="M10057 6174 c-21 -14 -36 -28 -34 -31 5 -5 97 45 97 53 0 11 -30 1
-63 -22z"/>
<path d="M5388 6178 c-25 -9 -40 -38 -19 -38 22 0 71 24 68 33 -5 15 -18 17
-49 5z"/>
<path d="M10105 6129 c-16 -11 -47 -27 -67 -36 -33 -13 -52 -33 -30 -33 16 1
136 68 140 79 5 16 -8 13 -43 -10z"/>
<path d="M4830 5301 c0 -10 163 -101 180 -101 5 0 10 6 10 14 0 8 -35 33 -77
55 -76 40 -113 50 -113 32z"/>
<path d="M3237 5259 c-9 -6 -17 -16 -17 -23 0 -17 33 -46 53 -46 25 0 31 21 8
27 -15 4 -20 11 -16 23 7 23 -5 31 -28 19z"/>
<path d="M5057 5173 c-16 -26 -28 -158 -29 -317 -6 -823 -3 -936 20 -1026 42
-161 101 -241 262 -362 102 -77 191 -118 256 -118 62 0 89 17 79 49 -6 21 -11
23 -47 17 -55 -9 -118 13 -207 72 -122 82 -206 165 -240 235 -53 114 -64 187
-60 422 2 116 3 260 2 320 -3 419 -1 545 8 603 17 107 17 107 -13 110 -14 2
-28 -1 -31 -5z"/>
<path d="M9750 5000 c0 -5 16 -10 35 -10 19 0 35 5 35 10 0 6 -16 10 -35 10
-19 0 -35 -4 -35 -10z"/>
<path d="M9795 4960 c3 -5 11 -10 16 -10 6 0 7 5 4 10 -3 6 -11 10 -16 10 -6
0 -7 -4 -4 -10z"/>
<path d="M8516 4841 c-53 -59 -46 -223 15 -344 27 -51 92 -97 139 -97 20 0 60
12 89 26 51 26 67 42 217 222 l21 26 31 -23 c35 -25 44 -15 12 14 -15 14 -17
21 -9 32 18 20 30 16 102 -32 37 -25 67 -40 67 -35 0 12 -74 67 -101 75 -28 9
-23 28 11 48 26 16 40 37 25 37 -18 0 -161 -119 -201 -167 -138 -167 -195
-208 -276 -201 -57 6 -88 34 -127 118 -36 78 -42 217 -12 274 23 45 22 55 -3
27z"/>
<path d="M9130 4731 c0 -6 29 -31 65 -56 35 -25 75 -59 89 -76 14 -16 27 -29
30 -29 14 0 3 20 -29 53 -42 44 -155 122 -155 108z"/>
<path d="M9680 4570 c0 -13 70 -42 90 -37 10 3 5 8 -15 15 -16 7 -38 17 -47
22 -22 13 -28 13 -28 0z"/>
<path d="M6210 844 l0 -146 -40 35 c-66 56 -155 72 -241 42 -64 -23 -104 -59
-135 -120 -52 -108 -30 -243 53 -316 51 -44 92 -59 166 -59 75 0 123 17 166
60 l31 32 0 -46 c0 -46 0 -46 35 -46 l35 0 0 355 0 355 -35 0 -35 0 0 -146z
m-82 -146 c54 -36 77 -87 77 -168 -1 -77 -19 -117 -71 -157 -52 -39 -151 -44
-209 -11 -74 43 -108 141 -80 233 15 53 60 106 105 124 44 19 134 8 178 -21z"/>
<path d="M6460 970 c-6 -12 -8 -30 -5 -40 7 -24 52 -37 74 -23 20 13 26 50 11
69 -19 21 -67 18 -80 -6z"/>
<path d="M9042 978 c-7 -7 -12 -21 -12 -33 0 -28 19 -45 50 -45 31 0 50 17 50
45 0 12 -5 26 -12 33 -15 15 -61 15 -76 0z"/>
<path d="M8552 941 c-29 -10 -64 -29 -79 -42 -76 -70 -69 -198 14 -253 21 -14
88 -39 148 -57 121 -34 140 -42 173 -72 26 -24 30 -91 7 -123 -51 -74 -236
-75 -352 -3 -19 12 -35 20 -37 18 -2 -2 -8 -14 -15 -26 -10 -20 -7 -25 26 -48
54 -36 136 -58 219 -58 82 1 135 15 182 50 45 33 62 72 62 139 0 55 -2 59 -43
99 -44 41 -51 45 -251 100 -102 28 -140 90 -101 165 24 47 68 65 160 65 63 0
92 -6 133 -24 45 -20 55 -22 63 -10 17 27 9 46 -28 62 -97 41 -195 48 -281 18z"/>
<path d="M4890 615 l0 -335 35 0 35 0 0 335 0 335 -35 0 -35 0 0 -335z"/>
<path d="M11130 615 l0 -335 225 0 225 0 0 30 0 30 -185 0 -185 0 0 305 0 305
-40 0 -40 0 0 -335z"/>
<path d="M5170 535 l0 -255 30 0 30 0 0 138 c0 75 5 155 10 176 18 78 71 125
151 132 66 6 113 -15 146 -65 22 -32 23 -44 23 -207 l0 -174 35 0 35 0 0 175
c0 187 -7 224 -53 274 -73 79 -222 81 -308 4 l-39 -35 0 46 c0 44 -1 46 -30
46 l-30 0 0 -255z"/>
<path d="M6470 536 l0 -256 35 0 35 0 -2 253 -3 252 -32 3 -33 3 0 -255z"/>
<path d="M6805 776 c-38 -12 -62 -23 -94 -44 -11 -8 -10 -14 4 -36 16 -24 19
-25 34 -12 26 24 99 46 148 46 86 0 143 -51 143 -128 l0 -29 -117 -5 c-180 -8
-233 -41 -233 -144 0 -92 64 -144 180 -144 66 0 117 17 149 49 l21 21 0 -35
c0 -33 2 -35 35 -35 l35 0 0 183 c0 195 -9 237 -58 280 -49 44 -164 59 -247
33z m235 -311 c0 -85 -80 -142 -183 -132 -41 4 -56 10 -80 37 -23 26 -28 39
-23 64 3 17 17 41 32 54 23 20 35 22 140 22 l114 0 0 -45z"/>
<path d="M7300 535 l0 -255 30 0 30 0 0 138 c0 75 5 155 10 176 18 78 71 125
151 132 66 6 113 -15 146 -65 22 -32 23 -44 23 -207 l0 -174 35 0 35 0 0 175
c0 187 -7 224 -53 274 -73 79 -222 81 -308 4 l-39 -35 0 46 c0 44 -1 46 -30
46 l-30 0 0 -255z"/>
<path d="M9050 535 l0 -255 30 0 30 0 0 255 0 255 -30 0 -30 0 0 -255z"/>
<path d="M9430 781 c-114 -37 -174 -119 -174 -236 0 -76 15 -117 63 -168 48
-53 97 -72 186 -72 70 0 86 4 127 28 26 15 52 35 57 45 8 13 10 1 11 -48 0
-85 -22 -127 -81 -158 -62 -33 -170 -27 -248 12 -48 25 -55 26 -69 13 -23 -24
-7 -46 55 -74 114 -52 272 -41 344 24 62 56 69 95 69 390 l0 253 -30 0 c-29 0
-30 -2 -30 -45 0 -44 -12 -60 -23 -31 -3 8 -27 27 -52 42 -50 29 -155 42 -205
25z m151 -62 c40 -14 85 -53 105 -91 18 -35 18 -131 0 -166 -47 -90 -167 -127
-264 -81 -134 65 -133 269 2 330 47 21 108 24 157 8z"/>
<path d="M9967 783 c-4 -3 -7 -118 -7 -255 l0 -248 34 0 34 0 4 168 c3 187 13
217 80 257 47 28 146 28 185 -1 55 -40 63 -72 63 -256 l0 -168 35 0 35 0 0
163 c0 117 -4 178 -15 214 -27 92 -112 141 -223 130 -55 -6 -134 -44 -151 -75
-8 -13 -10 -6 -11 31 0 45 -1 47 -28 47 -16 0 -32 -3 -35 -7z"/>
<path d="M11765 776 c-38 -12 -62 -23 -94 -44 -11 -8 -10 -14 4 -36 16 -24 19
-25 34 -12 26 24 99 46 148 46 86 0 143 -51 143 -128 l0 -29 -117 -5 c-180 -8
-233 -41 -233 -144 0 -92 64 -144 180 -144 66 0 117 17 149 49 l21 21 0 -35
c0 -33 2 -35 35 -35 l35 0 0 183 c0 195 -9 237 -58 280 -49 44 -164 59 -247
33z m235 -311 c0 -85 -80 -142 -183 -132 -41 4 -56 10 -80 37 -23 26 -28 39
-23 64 3 17 17 41 32 54 23 20 35 22 140 22 l114 0 0 -45z"/>
<path d="M12260 535 l0 -255 30 0 30 0 0 138 c0 75 5 155 10 176 18 78 71 125
151 132 66 6 113 -15 146 -65 22 -32 23 -44 23 -207 l0 -174 35 0 35 0 0 175
c0 187 -7 224 -53 274 -73 79 -222 81 -308 4 l-39 -35 0 46 c0 44 -1 46 -30
46 l-30 0 0 -255z"/>
<path d="M13015 775 c-178 -66 -216 -308 -67 -422 100 -76 245 -69 336 15 l29
27 -7 -70 c-8 -77 -26 -117 -69 -149 -24 -18 -43 -21 -115 -21 -76 0 -95 4
-146 29 -57 28 -60 28 -73 10 -20 -27 -13 -36 50 -68 44 -22 75 -29 140 -33
102 -7 168 12 215 60 59 61 62 79 62 372 l0 265 -30 0 c-29 0 -30 -1 -30 -47
l0 -47 -27 26 c-16 14 -44 34 -63 43 -47 24 -154 29 -205 10z m193 -66 c64
-32 97 -86 97 -163 0 -73 -26 -123 -83 -158 -55 -34 -164 -33 -215 2 -95 65
-111 206 -30 286 56 56 153 70 231 33z"/>
<path d="M13567 783 c-11 -11 -8 -298 4 -353 13 -59 57 -116 106 -136 45 -19
156 -18 196 2 18 9 44 28 60 42 l27 26 0 -42 c0 -40 1 -42 30 -42 l30 0 0 255
0 255 -29 0 -29 0 -3 -162 c-4 -179 -16 -220 -72 -262 -37 -27 -133 -34 -179
-12 -64 31 -73 59 -76 259 l-4 177 -27 0 c-15 0 -31 -3 -34 -7z"/>
<path d="M14295 777 c-52 -18 -105 -45 -105 -55 0 -5 6 -17 14 -27 14 -19 15
-19 56 4 24 13 66 25 98 28 100 9 158 -31 169 -115 l5 -39 -119 -5 c-90 -4
-130 -10 -158 -24 -55 -27 -80 -66 -79 -122 1 -92 64 -142 178 -142 75 0 110
11 149 48 l27 26 0 -37 c0 -36 1 -37 35 -37 l35 0 0 168 c-1 227 -13 271 -90
316 -41 24 -159 31 -215 13z m235 -311 c0 -78 -69 -136 -162 -136 -92 0 -147
60 -119 128 18 43 43 51 169 51 l112 1 0 -44z"/>
<path d="M14910 781 c-114 -37 -174 -119 -174 -236 0 -76 15 -117 63 -168 48
-53 97 -72 186 -72 70 0 86 4 127 28 26 15 52 35 57 45 8 13 10 1 11 -48 0
-85 -22 -127 -81 -158 -62 -33 -170 -27 -248 12 -48 25 -55 26 -69 13 -23 -24
-7 -46 55 -74 114 -52 272 -41 344 24 62 56 69 95 69 390 l0 253 -30 0 c-29 0
-30 -2 -30 -45 0 -44 -12 -60 -23 -31 -3 8 -27 27 -52 42 -50 29 -155 42 -205
25z m151 -62 c40 -14 85 -53 105 -91 18 -35 18 -131 0 -166 -47 -90 -167 -127
-264 -81 -134 65 -133 269 2 330 47 21 108 24 157 8z"/>
<path d="M15556 776 c-84 -31 -139 -97 -158 -187 -34 -165 83 -309 251 -309
84 0 128 12 171 49 34 28 35 29 16 49 l-18 21 -40 -27 c-79 -52 -212 -39 -270
25 -18 19 -48 84 -48 103 0 6 73 10 211 10 l211 0 -4 59 c-9 121 -98 209 -220
217 -40 3 -77 -1 -102 -10z m151 -57 c15 -6 39 -20 52 -32 24 -22 60 -91 61
-114 0 -10 -43 -13 -180 -13 -99 0 -180 4 -180 9 0 24 26 79 49 105 47 52 130
71 198 45z"/>
</g>
</svg>
